<?xml version="1.0" encoding="UTF-8" standalone="no"?>
<!-- Created with Inkscape (http://www.inkscape.org/) -->

<svg
   xmlns:dc="http://purl.org/dc/elements/1.1/"
   xmlns:cc="http://creativecommons.org/ns#"
   xmlns:rdf="http://www.w3.org/1999/02/22-rdf-syntax-ns#"
   xmlns:svg="http://www.w3.org/2000/svg"
   xmlns="http://www.w3.org/2000/svg"
   xmlns:sodipodi="http://sodipodi.sourceforge.net/DTD/sodipodi-0.dtd"
   xmlns:inkscape="http://www.inkscape.org/namespaces/inkscape"
   width="192"
   height="192"
   viewBox="0 0 192 192"
   id="svg2"
   version="1.1"
   inkscape:version="0.91 r13725"
   sodipodi:docname="icon_src.svg"
   inkscape:export-filename="D:\work\WaterFront\app\images\icon_tst.png"
   inkscape:export-xdpi="22.75"
   inkscape:export-ydpi="22.75">
  <defs
     id="defs4" />
  <sodipodi:namedview
     id="base"
     pagecolor="#ffffff"
     bordercolor="#666666"
     borderopacity="1.0"
     inkscape:pageopacity="0"
     inkscape:pageshadow="2"
     inkscape:zoom="3.959798"
     inkscape:cx="33.340408"
     inkscape:cy="98.06053"
     inkscape:document-units="px"
     inkscape:current-layer="layer1"
     showgrid="false"
     units="px"
     inkscape:window-width="1920"
     inkscape:window-height="1137"
     inkscape:window-x="-8"
     inkscape:window-y="-6"
     inkscape:window-maximized="1"
     inkscape:showpageshadow="false" />
  <metadata
     id="metadata7">
    <rdf:RDF>
      <cc:Work
         rdf:about="">
        <dc:format>image/svg+xml</dc:format>
        <dc:type
           rdf:resource="http://purl.org/dc/dcmitype/StillImage" />
        <dc:title></dc:title>
      </cc:Work>
    </rdf:RDF>
  </metadata>
  <g
     inkscape:label="Layer 1"
     inkscape:groupmode="layer"
     id="layer1"
     transform="translate(0,-860.36216)">
    <circle
       style="fill:#ffb74d;fill-opacity:1;stroke:none;stroke-opacity:1;fill-rule:nonzero"
       id="path4149"
       cx="95.964493"
       cy="956.39771"
       r="94.954338"
       inkscape:export-filename="D:\work\WaterFront\app\images\path4147.png"
       inkscape:export-xdpi="45"
       inkscape:export-ydpi="45" />
    <path
       style="fill:#29b6f6;fill-opacity:1"
       d="m 91.471209,1021.9553 c -20.325526,-0.6733 -40.40271,-6.6699 -58.157657,-17.3702 -1.721813,-1.0377 -4.109523,-2.5892 -4.838931,-3.1441 -0.245231,-0.1866 -0.164984,-0.2987 1.397757,-1.95279 1.945428,-2.05929 5.848048,-5.9236 6.8096,-6.74275 0.369269,-0.31458 0.795555,-0.57194 0.947302,-0.57194 0.15174,0 1.085116,0.48494 2.074172,1.07783 9.496965,5.69304 19.758248,9.97925 30.09297,12.57005 5.136832,1.2879 11.270442,2.3594 15.374686,2.686 5.614461,0.4469 17.647122,0.4104 21.675322,-0.066 15.81684,-1.8692 30.14126,-6.7336 43.98412,-14.93657 l 2.80046,-1.65947 4.60503,4.64762 4.60502,4.64762 -0.50765,0.4389 c -1.47943,1.2788 -10.29215,6.3287 -14.99108,8.59 -13.17984,6.3428 -27.22813,10.187 -41.83794,11.4484 -2.19114,0.1892 -9.563641,0.5071 -10.601211,0.457 -0.22651,-0.011 -1.7709,-0.065 -3.43197,-0.12 z m 0.75503,-26.83542 c -8.721981,-1.09778 -16.112982,-4.43867 -22.397591,-10.12421 -5.31161,-4.80517 -9.527561,-11.54113 -11.503519,-18.37951 -0.945856,-3.2734 -1.377928,-6.06129 -1.475028,-9.51745 -0.08876,-3.15923 0.121702,-5.30471 0.788047,-8.03349 3.174002,-12.99803 15.190414,-33.56542 32.80211,-56.14436 3.230071,-4.14109 5.929041,-7.40106 6.133001,-7.40778 0.4735,-0.0156 10.820131,13.39403 16.043071,20.79246 11.97955,16.96929 20.49541,32.83993 22.76126,42.41915 1.03275,4.36611 1.06111,10.07654 0.0747,15.03203 -1.15372,5.79563 -3.94784,11.74441 -7.80203,16.61071 -1.34823,1.70228 -4.53582,4.91327 -6.18357,6.22894 -5.46978,4.36745 -12.07955,7.28139 -18.89384,8.32956 -2.51331,0.38658 -7.998991,0.48946 -10.346551,0.19395 z M 101.086,981.96275 c 6.30573,-1.09161 12.13312,-4.58089 16.30387,-9.76213 3.1968,-3.97129 4.83935,-7.75195 5.59276,-12.87288 0.5992,-4.07269 0.20304,-7.10953 -1.53262,-11.74873 -2.63554,-7.04446 -7.32469,-15.53152 -14.87778,-26.92783 -4.11141,-6.20342 -9.658281,-14.00244 -9.958911,-14.00244 -0.48656,0 -7.684471,10.13329 -12.276367,17.28279 -7.964213,12.40013 -12.906105,22.43182 -14.21526,28.85595 -0.592941,2.9096 -0.172857,7.35001 1.050712,11.10653 0.544329,1.67117 1.910643,4.55665 2.860115,6.04029 4.322886,6.75475 11.563994,11.31923 19.37658,12.21425 1.46371,0.16771 6.312915,0.0496 7.676901,-0.1858 z m -4.466841,-12.96794 0,-4.82102 0.30888,-0.0658 c 0.16989,-0.0363 0.67953,-0.1368 1.13255,-0.22351 3.567151,-0.6827 6.251971,-3.52266 6.925581,-7.32575 0.0793,-0.44801 0.14428,-0.8341 0.14428,-0.85799 0,-0.0238 2.16214,-0.0435 4.80475,-0.0435 l 4.80476,0 0,0.42854 c 0,0.80849 -0.42572,3.29521 -0.76826,4.48756 -0.45021,1.56715 -1.74013,4.21186 -2.72438,5.58575 -1.0011,1.39743 -2.5985,3.0387 -3.93213,4.04021 -2.52205,1.89402 -6.18595,3.25211 -9.494841,3.51942 l -1.20119,0.0971 0,-4.82107 z"
       id="path4147"
       inkscape:connector-curvature="0"
       inkscape:export-filename="D:\work\WaterFront\app\images\path4147.png"
       inkscape:export-xdpi="45"
       inkscape:export-ydpi="45" />
  </g>
</svg>
